<svg width="14" height="14" viewBox="0 0 14 14" fill="none" xmlns="http://www.w3.org/2000/svg">
<path d="M13.9029 5.1451C13.8696 5.04822 13.7516 4.97287 13.6532 4.97287C13.2267 4.97287 12.8003 4.97287 12.3739 4.97287C12.2755 4.97287 12.1575 5.04822 12.1242 5.1451C12.0916 5.23992 12.0673 5.32453 12.0511 5.4041L11.1966 3.04003C11.0556 2.6502 10.6824 2.38829 10.2679 2.38829H3.73228C3.31776 2.38829 2.94457 2.6502 2.80356 3.0401L1.94901 5.40438C1.9328 5.32474 1.90846 5.24003 1.87586 5.1451C1.84258 5.04822 1.72459 4.97287 1.62615 4.97287C1.19975 4.97287 0.773342 4.97287 0.346901 4.97287C0.248459 4.97287 0.13047 5.04822 0.0971951 5.1451C-0.0323584 5.5223 -0.0322874 5.73823 0.0972305 6.11547C0.130506 6.21235 0.248494 6.2877 0.346937 6.2877C0.773377 6.2877 1.19978 6.2877 1.62619 6.2877C1.62739 6.2877 1.62867 6.28738 1.62991 6.28734L1.61061 6.34081C1.34977 6.42747 1.16143 6.67303 1.16143 6.963V8.94266V9.10581V11.2964C1.16143 11.4706 1.30255 11.6117 1.4767 11.6117H3.06337C3.23748 11.6117 3.37864 11.4706 3.37864 11.2964V9.76173H10.6215V11.2964C10.6215 11.4706 10.7626 11.6117 10.9368 11.6117H12.5234C12.6976 11.6117 12.8387 11.4706 12.8387 11.2964V9.10581V8.94266V6.963C12.8387 6.6731 12.6504 6.42758 12.3897 6.34084L12.3704 6.28734C12.3715 6.28738 12.3728 6.28766 12.3739 6.28766C12.8004 6.28766 13.2268 6.28766 13.6532 6.28766C13.7517 6.28766 13.8696 6.21232 13.9029 6.11543C14.0324 5.73823 14.0323 5.5223 13.9029 5.1451ZM3.853 3.54845H10.1463L11.1434 6.30703H2.85592L3.853 3.54845ZM4.02853 8.25037H2.70114C2.41635 8.25037 2.18552 8.01954 2.18552 7.73475C2.18552 7.44999 2.41631 7.21912 2.70114 7.21912H4.02853C4.31329 7.21912 4.54416 7.44996 4.54416 7.73475C4.54419 8.01954 4.31329 8.25037 4.02853 8.25037ZM11.2989 8.25037H9.97149C9.68674 8.25037 9.45587 8.01954 9.45587 7.73475C9.45587 7.44999 9.68674 7.21912 9.97149 7.21912H11.2989C11.5837 7.21912 11.8145 7.44996 11.8145 7.73475C11.8145 8.01954 11.5837 8.25037 11.2989 8.25037Z" fill="white"/>
</svg>
