<svg width="14" height="14" viewBox="0 0 14 14" fill="none" xmlns="http://www.w3.org/2000/svg">
<g clip-path="url(#clip0_2964_289)">
<path d="M11.1015 5.76951H7.70698L10.6373 0.613627C10.7099 0.486629 10.7094 0.330791 10.6362 0.20422C10.5625 0.0777555 10.4275 -3.09944e-06 10.2812 -3.09944e-06H5.35937C5.18281 -3.09944e-06 5.02612 0.113003 4.97047 0.280376L2.50954 7.69051C2.46746 7.81548 2.48871 7.95327 2.56562 8.06019C2.64295 8.16721 2.76674 8.23044 2.89844 8.23044H6.37803L4.16223 13.4284C4.08287 13.6131 4.14942 13.8282 4.31925 13.9359C4.4863 14.0427 4.71071 14.0146 4.8455 13.8623L11.408 6.45214C11.5153 6.33155 11.5418 6.15884 11.4757 6.01187C11.4096 5.86447 11.263 5.76951 11.1015 5.76951Z" fill="white"/>
</g>
<defs>
<clipPath id="clip0_2964_289">
<rect width="14" height="14" fill="white"/>
</clipPath>
</defs>
</svg>
