<svg width="14" height="14" viewBox="0 0 14 14" fill="none" xmlns="http://www.w3.org/2000/svg">
<g clip-path="url(#clip0_2964_419)">
<g clip-path="url(#clip1_2964_419)">
<path d="M13.6222 6.08894C13.6219 6.08862 13.6216 6.0883 13.6213 6.08798L7.91038 0.377304C7.66696 0.133774 7.34332 -0.00038147 6.99907 -0.00038147C6.65481 -0.00038147 6.33118 0.133667 6.08765 0.377197L0.379745 6.08499C0.377822 6.08691 0.375899 6.08894 0.373977 6.09087C-0.125901 6.59363 -0.125047 7.40935 0.376433 7.91083C0.605544 8.14005 0.908141 8.27281 1.23167 8.2867C1.24481 8.28798 1.25806 8.28862 1.27141 8.28862H1.49902V12.4913C1.49902 13.323 2.17567 13.9996 3.00752 13.9996H5.24181C5.46825 13.9996 5.65196 13.816 5.65196 13.5895V10.2945C5.65196 9.91504 5.96065 9.60635 6.34015 9.60635H7.65799C8.03749 9.60635 8.34618 9.91504 8.34618 10.2945V13.5895C8.34618 13.816 8.52978 13.9996 8.75633 13.9996H10.9906C11.8225 13.9996 12.4991 13.323 12.4991 12.4913V8.28862H12.7102C13.0543 8.28862 13.378 8.15457 13.6216 7.91104C14.1236 7.40871 14.1238 6.5916 13.6222 6.08894Z" fill="white"/>
</g>
</g>
<defs>
<clipPath id="clip0_2964_419">
<rect width="14" height="14" fill="white"/>
</clipPath>
<clipPath id="clip1_2964_419">
<rect width="14" height="14" fill="white" transform="translate(0.000244141 -0.00038147)"/>
</clipPath>
</defs>
</svg>
