<svg width="46" height="56" viewBox="0 0 46 56" fill="none" xmlns="http://www.w3.org/2000/svg">
<g clip-path="url(#clip0_1_88)">
<path d="M40.0264 41.482L37.7653 41.482C37.5751 41.4688 37.3843 41.4962 37.2056 41.5623C37.0269 41.6283 36.8644 41.7315 36.7289 41.865C36.5934 41.9984 36.4881 42.1591 36.4198 42.3363C36.3516 42.5135 36.3221 42.7032 36.3332 42.8926C36.3169 43.1406 36.3678 43.3883 36.4804 43.6101C36.5931 43.8318 36.7636 44.0194 36.9739 44.1532C36.7699 44.2751 36.6027 44.4496 36.4899 44.6583C36.3771 44.8669 36.323 45.102 36.3332 45.3387C36.3228 45.545 36.3666 45.7505 36.4605 45.9348C36.5544 46.119 36.695 46.2757 36.8684 46.3892L36.4237 46.3892L36.4237 47.1695L40.0264 47.1695L40.0264 46.3817L38.0442 46.3817C37.921 46.3984 37.7956 46.3879 37.6769 46.3508C37.5583 46.3137 37.4494 46.251 37.3579 46.1671C37.2665 46.0832 37.1948 45.9803 37.1479 45.8656C37.1011 45.7509 37.0803 45.6274 37.087 45.5038C37.087 44.986 37.4261 44.7234 38.0366 44.7234L40.0415 44.7234L40.0415 43.9356L38.0442 43.9356C37.9211 43.9516 37.796 43.9406 37.6776 43.9033C37.5593 43.8659 37.4507 43.8032 37.3594 43.7194C37.2681 43.6357 37.1964 43.533 37.1493 43.4187C37.1022 43.3043 37.0809 43.1811 37.087 43.0577C37.087 42.5249 37.4261 42.2698 38.0366 42.2698L40.0415 42.2698L40.0264 41.482ZM36.4237 29.8255L36.4237 31.1086L35.3308 31.1086L35.3308 31.8964L36.4237 31.8964L36.4237 32.6092L37.1397 32.6092L37.1397 31.8814L38.7979 31.8814C39.6345 31.8814 40.132 31.5588 40.132 30.6359C40.1331 30.2911 40.0365 29.9529 39.8531 29.6604L39.1823 29.8855C39.3077 30.0948 39.3777 30.3323 39.3858 30.5758C39.3858 30.951 39.1446 31.0936 38.7828 31.0936L37.1397 31.0936L37.1397 29.818L36.4237 29.8255ZM36.3332 23.17C36.3276 23.3603 36.3737 23.5485 36.4665 23.7149C36.5594 23.8813 36.6956 24.0197 36.8608 24.1154L36.4237 24.1154L36.4237 24.8883L40.0264 24.8883L40.0264 24.1079L38.0065 24.1079C37.4111 24.1079 37.0794 23.8528 37.0794 23.3576C37.0771 23.1907 37.1079 23.025 37.1699 22.8699L36.4162 22.6298C36.3521 22.808 36.319 22.9958 36.3182 23.185L36.3332 23.17ZM36.7101 33.232C36.4463 33.6737 36.3155 34.1816 36.3332 34.6952C36.3332 35.6031 36.7704 36.1959 37.4864 36.1959C38.0743 36.1959 38.4361 35.7607 38.5492 34.9578L38.6019 34.5826C38.6622 34.1549 38.7753 33.9524 38.9788 33.9524C39.2577 33.9524 39.4159 34.2375 39.4159 34.7702C39.4284 35.1987 39.2957 35.619 39.0391 35.9632L39.6496 36.3384C39.9684 35.8839 40.1322 35.3394 40.1169 34.7852C40.1169 33.7498 39.627 33.1495 38.9411 33.1495C38.2552 33.1495 37.9763 33.6222 37.8633 34.4026L37.8105 34.7777C37.7653 35.1154 37.6975 35.3855 37.4563 35.3855C37.2151 35.3855 37.0342 35.1304 37.0342 34.7027C37.0388 34.3074 37.1452 33.9199 37.3432 33.5772L36.7101 33.232ZM36.3332 12.3314C36.3276 12.5217 36.3737 12.7099 36.4665 12.8763C36.5594 13.0427 36.6956 13.1811 36.8608 13.2769L36.4237 13.2769L36.4237 14.0497L40.0264 14.0497L40.0264 13.2693L38.0065 13.2693C37.4111 13.2693 37.0794 13.0142 37.0794 12.519C37.0771 12.3521 37.1079 12.1864 37.1699 12.0313L36.4162 11.7912C36.3521 11.9694 36.319 12.1572 36.3182 12.3464L36.3332 12.3314ZM38.2175 22.3859C38.4707 22.3952 38.723 22.3518 38.9584 22.2584C39.1937 22.165 39.4069 22.0238 39.5843 21.8437C39.7616 21.6636 39.8993 21.4486 39.9884 21.2125C40.0775 20.9764 40.1161 20.7244 40.1018 20.4726C40.1258 20.004 39.9725 19.5436 39.6722 19.182L39.0391 19.5572C39.2457 19.8269 39.3594 20.1559 39.3632 20.4951C39.3397 20.7835 39.2081 21.0526 38.9944 21.2488C38.7807 21.445 38.5007 21.554 38.21 21.554C37.9193 21.554 37.6393 21.445 37.4256 21.2488C37.2119 21.0526 37.0803 20.7835 37.0568 20.4951C37.0606 20.1559 37.1743 19.8269 37.3809 19.5572L36.7478 19.182C36.4475 19.5436 36.2942 20.004 36.3182 20.4726C36.3038 20.7244 36.3425 20.9764 36.4316 21.2125C36.5207 21.4486 36.6583 21.6636 36.8357 21.8437C37.0131 22.0238 37.2262 22.165 37.4616 22.2584C37.6969 22.3518 37.9493 22.3952 38.2025 22.3859L38.2175 22.3859ZM38.2175 15.0777L36.4237 15.0777L36.4237 15.858L36.8608 15.858C36.6896 15.9905 36.5524 16.1617 36.4607 16.3574C36.3689 16.5531 36.3252 16.7677 36.3332 16.9835C36.3332 17.481 36.5318 17.9581 36.8851 18.3099C37.2385 18.6617 37.7178 18.8593 38.2175 18.8593C38.7173 18.8593 39.1965 18.6617 39.5499 18.3099C39.9033 17.9581 40.1018 17.481 40.1018 16.9835C40.1098 16.7677 40.0661 16.5531 39.9744 16.3574C39.8827 16.1617 39.7455 15.9905 39.5742 15.858L40.0114 15.858L40.0114 15.0777L38.2175 15.0777ZM38.2175 17.9815C38.0055 17.969 37.8017 17.8951 37.6313 17.7688C37.4609 17.6425 37.3313 17.4694 37.2585 17.2707C37.1857 17.072 37.1728 16.8565 37.2215 16.6507C37.2701 16.4448 37.3782 16.2576 37.5324 16.1121C37.6866 15.9667 37.8802 15.8693 38.0893 15.8319C38.2984 15.7946 38.5139 15.8189 38.7093 15.9019C38.9046 15.985 39.0714 16.1231 39.1889 16.2993C39.3064 16.4754 39.3696 16.682 39.3707 16.8935C39.3726 17.042 39.3436 17.1893 39.2855 17.3262C39.2274 17.463 39.1415 17.5864 39.0332 17.6886C38.9249 17.7908 38.7965 17.8696 38.6561 17.92C38.5158 17.9704 38.3664 17.9913 38.2175 17.9815ZM36.3332 27.3982C36.3402 27.8957 36.5455 28.37 36.9038 28.7169C37.2621 29.0638 37.7442 29.2547 38.2439 29.2477C38.7437 29.2408 39.2201 29.0365 39.5686 28.6798C39.917 28.323 40.1088 27.8431 40.1018 27.3456C40.1296 26.8059 39.955 26.2751 39.6119 25.8562L39.0315 26.2314C39.2702 26.5276 39.4028 26.8947 39.4084 27.2744C39.4307 27.5323 39.351 27.7887 39.1863 27.9891C39.0216 28.1895 38.7849 28.318 38.5266 28.3473L38.5266 25.6837C38.4286 25.6837 38.3306 25.6837 38.2251 25.6837C37.0945 25.6837 36.3408 26.3815 36.3408 27.3869L36.3332 27.3982ZM37.0342 27.3982C37.0317 27.2814 37.0523 27.1653 37.0949 27.0564C37.1375 26.9476 37.2012 26.8482 37.2824 26.7639C37.3636 26.6796 37.4607 26.612 37.5681 26.5651C37.6755 26.5181 37.7912 26.4927 37.9085 26.4903L37.9085 28.3661C37.6666 28.3525 37.4396 28.2452 37.2762 28.0671C37.1128 27.889 37.0259 27.6543 37.0342 27.4132L37.0342 27.3982ZM38.2251 7.84817L34.9766 7.84818L34.9766 8.59851L36.8608 8.59851C36.6896 8.73103 36.5524 8.9022 36.4607 9.0979C36.3689 9.29359 36.3252 9.50821 36.3332 9.72401C36.3332 10.2215 36.5318 10.6986 36.8851 11.0504C37.2385 11.4022 37.7178 11.5999 38.2175 11.5999C38.7173 11.5999 39.1965 11.4022 39.5499 11.0504C39.9033 10.6986 40.1018 10.2215 40.1018 9.72401C40.1098 9.50821 40.0661 9.29359 39.9744 9.0979C39.8827 8.9022 39.7455 8.73103 39.5742 8.59851L40.0114 8.59851L40.0114 7.84817L38.2251 7.84817ZM39.5026 6.54634C39.502 6.49757 39.511 6.44914 39.529 6.40378C39.5467 6.36069 39.5722 6.32125 39.6044 6.28748C39.6369 6.25451 39.6752 6.2278 39.7174 6.20869C39.7614 6.18969 39.8089 6.17989 39.8569 6.17989C39.9048 6.17989 39.9523 6.18969 39.9963 6.20869C40.0385 6.2278 40.0769 6.25451 40.1093 6.28748C40.1415 6.32125 40.1671 6.36069 40.1847 6.40378C40.2046 6.44869 40.2149 6.49725 40.2149 6.54634C40.2143 6.61746 40.1935 6.68696 40.1548 6.74674C40.1161 6.80653 40.0611 6.85412 39.9963 6.88399C39.9522 6.90277 39.9048 6.91246 39.8569 6.91246C39.8089 6.91246 39.7615 6.90277 39.7174 6.88399C39.6752 6.86488 39.6369 6.83817 39.6044 6.80521C39.5722 6.77143 39.5467 6.73199 39.529 6.68891C39.5095 6.64004 39.5005 6.58763 39.5026 6.53509L39.5026 6.54634ZM40.1395 6.54634C40.1397 6.5089 40.132 6.47183 40.1169 6.43755C40.1024 6.40527 40.082 6.37599 40.0566 6.35125C40.0052 6.30432 39.9379 6.27829 39.8682 6.27829C39.7984 6.27829 39.7312 6.30432 39.6797 6.35125C39.6543 6.37593 39.6338 6.40522 39.6194 6.43755C39.6044 6.47186 39.5967 6.50891 39.5968 6.54634C39.597 6.58374 39.6047 6.62073 39.6194 6.65514C39.6333 6.68885 39.6538 6.71946 39.6797 6.74518C39.7312 6.79211 39.7984 6.81814 39.8682 6.81814C39.9379 6.81814 40.0052 6.79211 40.0566 6.74518C40.0824 6.71939 40.1029 6.6888 40.1169 6.65514C40.1333 6.61729 40.141 6.57628 40.1395 6.53509L40.1395 6.54634ZM39.691 6.52383C39.6893 6.48881 39.7 6.4543 39.7212 6.42629C39.7307 6.41481 39.7429 6.40575 39.7567 6.39988C39.7704 6.394 39.7854 6.39148 39.8003 6.39252C39.8128 6.39198 39.8253 6.39404 39.837 6.39856C39.8487 6.40308 39.8593 6.40997 39.8682 6.41878C39.888 6.44053 39.8999 6.46827 39.9021 6.49757L40.0264 6.38877L40.0264 6.47506L39.9021 6.57635L39.9021 6.61012L40.0264 6.61012L40.0264 6.6814L39.6948 6.6814L39.691 6.52383ZM39.7551 6.60637L39.8455 6.60637L39.8455 6.52383C39.8499 6.50915 39.8499 6.4935 39.8455 6.47881C39.8403 6.47618 39.8345 6.4748 39.8286 6.4748C39.8227 6.4748 39.8169 6.47618 39.8116 6.47881C39.8064 6.47618 39.8006 6.4748 39.7947 6.4748C39.7888 6.4748 39.783 6.47618 39.7777 6.47881C39.7733 6.4935 39.7733 6.50915 39.7777 6.52383L39.7551 6.60637ZM38.2251 10.7332C38.013 10.7208 37.8092 10.6469 37.6388 10.5206C37.4684 10.3943 37.3388 10.2212 37.266 10.0225C37.1932 9.82381 37.1803 9.60827 37.229 9.40241C37.2777 9.19656 37.3858 9.00937 37.54 8.86389C37.6942 8.71842 37.8877 8.62101 38.0968 8.58366C38.3059 8.54632 38.5214 8.57066 38.7168 8.65371C38.9122 8.73675 39.0789 8.87485 39.1964 9.05103C39.3139 9.2272 39.3771 9.43375 39.3782 9.64523C39.3801 9.79377 39.3511 9.9411 39.293 10.0779C39.235 10.2148 39.1491 10.3382 39.0407 10.4404C38.9324 10.5426 38.8041 10.6213 38.6637 10.6717C38.5233 10.7221 38.374 10.7431 38.2251 10.7332ZM38.2251 37.0812L36.4237 37.0812L36.4237 37.8616L36.8608 37.8616C36.6896 37.9941 36.5524 38.1653 36.4607 38.361C36.3689 38.5567 36.3252 38.7713 36.3332 38.9871C36.3332 39.4846 36.5318 39.9617 36.8851 40.3135C37.2385 40.6653 37.7178 40.8629 38.2175 40.8629C38.7173 40.8629 39.1965 40.6653 39.5499 40.3135C39.9033 39.9617 40.1018 39.4846 40.1018 38.9871C40.1098 38.7713 40.0661 38.5567 39.9744 38.361C39.8827 38.1653 39.7455 37.9941 39.5742 37.8616L40.0114 37.8616L40.0114 37.0812L38.2251 37.0812ZM38.2251 39.985C38.013 39.9726 37.8092 39.8987 37.6388 39.7724C37.4684 39.6461 37.3388 39.473 37.266 39.2743C37.1932 39.0756 37.1803 38.8601 37.229 38.6542C37.2777 38.4484 37.3858 38.2612 37.54 38.1157C37.6942 37.9702 37.8877 37.8728 38.0968 37.8355C38.3059 37.7981 38.5214 37.8225 38.7168 37.9055C38.9122 37.9886 39.0789 38.1267 39.1964 38.3029C39.3139 38.479 39.3771 38.6856 39.3782 38.8971C39.3812 39.0462 39.353 39.1944 39.2953 39.3321C39.2377 39.4699 39.152 39.5942 39.0436 39.6972C38.9351 39.8002 38.8064 39.8796 38.6655 39.9305C38.5246 39.9813 38.3746 40.0025 38.2251 39.9926L38.2251 39.985Z" fill="white"/>
<path d="M8.96973 21.6732L8.96973 33.491L30.3036 33.491L30.3036 21.6732L8.96973 21.6732Z" fill="#FF5F00"/>
<path d="M19.6391 32.7406C17.5842 32.7428 15.5557 32.2795 13.7073 31.3857C11.8589 30.492 10.239 29.1913 8.97023 27.5821C7.39731 29.5745 6.41921 31.9673 6.14771 34.487C5.8762 37.0067 6.32226 39.5516 7.43489 41.8309C8.54752 44.1101 10.2818 46.0318 12.4396 47.3762C14.5974 48.7206 17.0916 49.4336 19.6372 49.4336C22.1827 49.4336 24.6769 48.7206 26.8347 47.3762C28.9925 46.0318 30.7268 44.1101 31.8395 41.8309C32.9521 39.5516 33.3981 37.0067 33.1266 34.487C32.8551 31.9673 31.877 29.5745 30.3041 27.5821C29.0358 29.1908 27.4165 30.4912 25.5688 31.3849C23.721 32.2786 21.6933 32.7422 19.6391 32.7406Z" fill="#EB001B"/>
<path d="M19.6385 5.72856C22.1843 5.72862 24.6787 6.44174 26.8365 7.7864C28.9944 9.13106 30.7287 11.053 31.8411 13.3325C32.9536 15.6121 33.3994 18.1572 33.1275 20.6771C32.8556 23.1969 31.877 25.5898 30.3036 27.5821C29.0341 25.974 27.4144 24.6739 25.5666 23.78C23.7188 22.886 21.6911 22.4215 19.6367 22.4215C17.5822 22.4215 15.5546 22.886 13.7068 23.78C11.8589 24.6739 10.2392 25.974 8.96973 27.5821C7.39632 25.5898 6.41774 23.1969 6.14584 20.6771C5.87395 18.1572 6.31972 15.6121 7.43219 13.3325C8.54466 11.053 10.279 9.13106 12.4368 7.7864C14.5947 6.44174 17.089 5.72862 19.6348 5.72856L19.6385 5.72856Z" fill="#F79E1B"/>
<path d="M28.0425 7.01914L27.6053 7.01914L27.6053 6.84282L27.5149 6.84282L27.5149 7.28926L27.6053 7.28926L27.6053 7.09793L28.0425 7.09793L28.0425 7.01914ZM28.0425 6.15251L27.5149 6.15251L27.5149 6.28757L27.8917 6.44514L27.5149 6.6027L27.5149 6.72276L28.0425 6.72276L28.0425 6.62522L27.6468 6.62522L27.9897 6.47891L27.9897 6.37761L27.6468 6.23129L28.0463 6.23129L28.0425 6.15251Z" fill="#F79E1B"/>
</g>
<defs>
<clipPath id="clip0_1_88">
<rect width="55.0746" height="45.3774" fill="white" transform="translate(0.358521 55.1194) rotate(-90)"/>
</clipPath>
</defs>
</svg>
