<svg width="14" height="14" viewBox="0 0 14 14" fill="none" xmlns="http://www.w3.org/2000/svg">
<g clip-path="url(#clip0_1_152)">
<path fill-rule="evenodd" clip-rule="evenodd" d="M3.66074 0.348112L5.4007 2.08846C5.88086 2.56782 5.88245 3.34668 5.4007 3.82842L5.11067 4.11848L1.63025 0.638256L1.9204 0.348112C2.3854 -0.116922 3.1965 -0.116129 3.66074 0.348112ZM9.27293 9.44335C8.90679 9.72699 8.38448 9.71567 8.04993 9.38038L4.60962 5.93769C4.27431 5.60237 4.26301 5.07967 4.54665 4.71444L1.07424 1.24222C-0.419569 2.98347 -0.361163 5.60719 1.28753 7.25588L6.73174 12.7025C8.31385 14.2845 10.9053 14.4944 12.7455 12.9157L9.27293 9.44335ZM13.6395 10.3297L11.8995 8.58931C11.4353 8.12507 10.6242 8.12428 10.1592 8.58931L9.86905 8.87946L13.3495 12.3597L13.6395 12.0696C14.1213 11.5879 14.1197 10.809 13.6395 10.3297Z" fill="white"/>
</g>
<defs>
<clipPath id="clip0_1_152">
<rect width="14" height="14" fill="white"/>
</clipPath>
</defs>
</svg>
