<svg width="33" height="18" viewBox="0 0 33 18" fill="none" xmlns="http://www.w3.org/2000/svg">
<path fill-rule="evenodd" clip-rule="evenodd" d="M1.91403 8.60467C2.58485 7.93384 3.29922 7.30657 4.05106 6.72891C5.19679 5.8708 6.42584 5.1255 7.72094 4.51027C8.04415 4.35521 8.37218 4.21138 8.70226 4.07328C9.68963 3.67789 10.704 3.35559 11.7371 3.10636C12.2608 2.98248 12.7889 2.87599 13.3236 2.78906C13.3898 2.77928 13.4567 2.76896 13.5235 2.75863C13.5903 2.74831 13.6572 2.73799 13.7234 2.72821C13.7539 2.72386 13.7837 2.72006 13.8136 2.71626C13.8435 2.71245 13.8734 2.70865 13.9038 2.7043L13.9233 2.70132C13.9672 2.69585 13.986 2.69334 13.9896 2.69275C14.237 2.6632 14.4844 2.63765 14.7318 2.61955C15.8032 2.53044 16.879 2.51958 17.9526 2.58912C18.2221 2.6065 18.4872 2.62824 18.7545 2.65649C18.878 2.66844 18.9997 2.68222 19.1212 2.69615C19.116 2.69577 19.1207 2.69677 19.1413 2.69995C19.1783 2.7043 19.2147 2.70919 19.2511 2.71408C19.2875 2.71897 19.3239 2.72386 19.3608 2.72821C19.8933 2.80427 20.4236 2.89989 20.9516 3.01507C22.1327 3.2737 23.2903 3.63279 24.4137 4.08597C25.7153 4.63064 26.9643 5.30113 28.1364 6.08804C28.4488 6.29758 28.7529 6.51548 29.053 6.74026C29.7984 7.31417 30.5068 7.93689 31.1724 8.60248C31.5136 8.94368 32.1395 8.96976 32.4764 8.60248C32.8132 8.2352 32.8415 7.66363 32.4764 7.29853C30.8182 5.64469 28.897 4.23208 26.8107 3.1672C24.7961 2.13925 22.6207 1.40687 20.3866 1.02873C18.0982 0.644065 15.7945 0.609294 13.4952 0.909204C11.2503 1.20259 9.06835 1.85891 7.01246 2.80645C4.89572 3.78441 2.94197 5.11661 1.22946 6.69873C1.01723 6.89364 0.811475 7.09501 0.607895 7.29426L0.605735 7.29638C0.264535 7.63758 0.238456 8.26347 0.605734 8.60032C0.977359 8.94152 1.54675 8.9676 1.91403 8.60467ZM13.9561 2.69677L13.9233 2.70132L13.8409 2.71146L13.8701 2.70756C13.8902 2.70484 13.9103 2.70213 13.9299 2.69996L13.9561 2.69677ZM13.9561 2.69677L13.9896 2.69275C13.9908 2.69255 13.9902 2.69257 13.9882 2.69278C13.9836 2.69327 13.9712 2.69478 13.9561 2.69677ZM3.90689 6.83782C3.93785 6.81423 3.96887 6.79073 3.99995 6.76731C3.96929 6.79081 3.93857 6.81432 3.90689 6.83782ZM24.2202 4.00607C24.2721 4.02721 24.3239 4.04854 24.3756 4.07007L24.2202 4.00607ZM29.1795 6.83563C29.1549 6.81733 29.1308 6.79902 29.1069 6.78072L29.1795 6.83563ZM10.9175 17.5832C11.1756 17.3256 11.4483 17.0861 11.7354 16.8614C12.2854 16.4586 12.8774 16.1183 13.5042 15.8504C13.9002 15.6942 14.3043 15.5656 14.7181 15.4665C14.9292 15.4165 15.138 15.3731 15.3512 15.3384C15.3773 15.334 15.404 15.3302 15.4306 15.3264C15.4536 15.3231 15.4766 15.3199 15.4993 15.3162C15.5177 15.3139 15.5438 15.3103 15.568 15.3069C15.5743 15.3061 15.5805 15.3052 15.5866 15.3043L15.6003 15.3023L15.6033 15.3023C15.6163 15.3021 15.6278 15.3019 15.6362 15.3015C15.6949 15.2949 15.7558 15.2906 15.8167 15.2863L15.8168 15.2863C16.2497 15.2493 16.6891 15.245 17.122 15.2732C17.2286 15.2797 17.3374 15.2884 17.444 15.2993C17.4775 15.3021 17.5119 15.3057 17.5466 15.3097C17.6153 15.3196 17.6514 15.3244 17.6669 15.3262C17.8604 15.3563 18.0525 15.3917 18.2446 15.4339C18.7095 15.5349 19.1645 15.677 19.6061 15.8492C20.2344 16.1189 20.8306 16.4588 21.3832 16.863C21.6703 17.0882 21.9415 17.3295 22.2018 17.5853C22.5434 17.9262 23.1699 17.9522 23.5071 17.5853C23.8443 17.2184 23.8726 16.6474 23.5071 16.2827C22.093 14.8802 20.2461 13.8925 18.2751 13.5625C16.2649 13.2238 14.2308 13.4908 12.3773 14.3419C11.3526 14.813 10.4107 15.4882 9.61007 16.2828C9.26852 16.6236 9.24241 17.2489 9.61006 17.5854C9.98207 17.9219 10.5521 17.9479 10.9175 17.5832ZM17.6018 15.3162L17.5466 15.3097L17.4897 15.3014L17.5397 15.308L17.5898 15.3145L17.6018 15.3162ZM17.6018 15.3162L17.6669 15.3262C17.6984 15.3297 17.6442 15.3207 17.605 15.3166L17.6049 15.3166L17.6018 15.3162ZM15.5996 15.3023C15.5557 15.3029 15.4964 15.3041 15.4752 15.3188C15.4748 15.3193 15.4845 15.3181 15.4993 15.3162L15.51 15.3145C15.5231 15.3123 15.5367 15.3107 15.5503 15.309L15.568 15.3069L15.5866 15.3043C15.5879 15.304 15.5892 15.3038 15.5905 15.3036C15.5937 15.3032 15.5968 15.3027 15.5996 15.3023ZM15.6003 15.3023C15.6001 15.3023 15.5998 15.3023 15.5996 15.3023C15.6486 15.2954 15.6337 15.2976 15.6003 15.3023ZM11.6202 16.9471L11.6719 16.9083C11.6549 16.9212 11.6377 16.9341 11.6202 16.9471ZM13.6652 15.7834L13.5691 15.8229C13.6011 15.8095 13.6331 15.7964 13.6652 15.7834ZM21.4991 16.9492C21.4819 16.9364 21.4649 16.9236 21.448 16.9108L21.4991 16.9492ZM7.86791 11.7429C7.34458 12.1476 6.84579 12.5847 6.37742 13.0521C6.01194 13.4168 5.44196 13.3908 5.07212 13.0564C4.70447 12.7199 4.73057 12.0947 5.07213 11.7538C5.22006 11.6062 5.37017 11.4608 5.52463 11.3196C6.75596 10.1864 8.15915 9.22897 9.67982 8.52774C11.1592 7.84604 12.7233 7.37493 14.3375 7.16218C16.0127 6.94073 17.6791 6.96678 19.3455 7.24466C20.9554 7.51387 22.5239 8.04576 23.9793 8.78606C25.4782 9.54808 26.8575 10.5641 28.0496 11.7495C28.4151 12.1142 28.3868 12.6852 28.0496 13.0521C27.7124 13.419 27.0859 13.3929 26.7443 13.0521C26.276 12.5846 25.7772 12.1476 25.2538 11.7428C24.2613 11.006 23.1813 10.3908 22.0404 9.91033C21.2546 9.59713 20.4401 9.34632 19.6131 9.16599C19.2454 9.08567 18.8734 9.01837 18.4993 8.96626C18.4902 8.96509 18.4808 8.9635 18.4711 8.9617C18.4662 8.96115 18.4604 8.9605 18.4536 8.95975L18.3948 8.95324C18.3078 8.94021 18.2208 8.93153 18.1338 8.92284C17.9401 8.90331 17.7465 8.88811 17.5507 8.87508C16.7915 8.82515 16.0301 8.83384 15.2752 8.8968C15.1139 8.90803 14.9526 8.92571 14.7913 8.94429C14.8586 8.93544 14.7921 8.94272 14.7487 8.9489C14.7422 8.94976 14.7357 8.95061 14.7293 8.95146C14.7242 8.95205 14.7191 8.95264 14.714 8.95324L14.7139 8.95324C14.7008 8.95542 14.6872 8.95704 14.6737 8.95867C14.6601 8.9603 14.6465 8.96193 14.6334 8.9641C14.6457 8.96259 14.6573 8.96116 14.6682 8.95982C14.6477 8.96269 14.6276 8.96555 14.6075 8.96842L14.6073 8.96844L14.3462 9.00752C13.9655 9.07048 13.587 9.14429 13.215 9.23331C12.4869 9.4065 11.7753 9.63312 11.0842 9.90917C9.94219 10.3898 8.86127 11.0054 7.86791 11.7429ZM7.72622 11.8494C7.75396 11.8283 7.78177 11.8073 7.80965 11.7864C7.78218 11.8074 7.75459 11.8284 7.72622 11.8494ZM11.2483 9.84119L11.1633 9.87613C11.1916 9.8644 11.22 9.85275 11.2483 9.84119ZM14.6682 8.95982C14.7292 8.95227 14.7682 8.94733 14.7913 8.94429C14.7706 8.94667 14.7499 8.94906 14.7293 8.95146C14.7083 8.95425 14.6881 8.95703 14.6682 8.95982ZM18.4689 8.96129C18.4614 8.95987 18.4537 8.95833 18.4459 8.95678C18.4088 8.94938 18.3702 8.94166 18.3383 8.94456C18.337 8.94583 18.4245 8.95612 18.4689 8.96129ZM21.8734 9.84117C21.9018 9.85274 21.9302 9.86439 21.9585 9.87612L21.8734 9.84117ZM25.3955 11.8493C25.3672 11.8283 25.3396 11.8073 25.3121 11.7863C25.34 11.8072 25.3678 11.8282 25.3955 11.8493Z" fill="white" fill-opacity="0.4"/>
</svg>
