<svg width="14" height="14" viewBox="0 0 14 14" fill="none" xmlns="http://www.w3.org/2000/svg">
<g clip-path="url(#clip0_2964_497)">
<path d="M6.99706 9.9066C6.32793 9.9066 5.78357 10.4492 5.78357 11.1158C5.78357 11.7826 6.32793 12.3254 6.99706 12.3254C7.66641 12.3254 8.21077 11.7826 8.21077 11.1158C8.21077 10.4492 7.6663 9.9066 6.99706 9.9066Z" fill="white"/>
<path d="M9.95775 8.2591C9.16771 7.46951 8.1161 7.03447 6.99702 7.03447C5.88225 7.03447 4.83351 7.46664 4.0437 8.25126C3.7247 8.56871 3.72415 9.0859 4.04237 9.40391C4.19696 9.55871 4.40277 9.64373 4.62184 9.64373C4.83991 9.64373 5.04496 9.55915 5.19932 9.40567C5.67997 8.92801 6.3184 8.66489 6.99702 8.66489C7.67819 8.66489 8.31838 8.92966 8.79936 9.4102C8.95395 9.56456 9.15965 9.6498 9.3785 9.6498C9.59679 9.6498 9.80173 9.56522 9.9562 9.41175C10.2756 9.09427 10.2762 8.57732 9.95775 8.2591Z" fill="white"/>
<path d="M13.761 4.46835C11.9548 2.66659 9.55249 1.67461 6.997 1.67461C4.44494 1.67461 2.04503 2.66427 0.239384 4.46175C-0.0796105 4.7792 -0.0798313 5.29639 0.238942 5.61439C0.393415 5.76842 0.598901 5.85311 0.817526 5.85311C1.03604 5.85311 1.24131 5.76875 1.39578 5.61483C2.89248 4.12509 4.88164 3.30447 6.997 3.30447C9.11546 3.30447 11.1066 4.12674 12.6036 5.62046C12.7581 5.7746 12.9639 5.85963 13.1824 5.85963C13.4009 5.85963 13.6061 5.77482 13.7605 5.62112C14.0796 5.30343 14.0799 4.78604 13.761 4.46835Z" fill="white"/>
<path d="M11.8111 6.41124C10.5254 5.12853 8.81575 4.4222 6.99696 4.4222C5.18149 4.4222 3.47433 5.12632 2.18974 6.40451C2.03505 6.55832 1.94992 6.76292 1.94958 6.98077C1.94958 7.19841 2.03439 7.40323 2.18886 7.55726C2.34333 7.7114 2.54893 7.79642 2.76755 7.79642C2.98585 7.79642 3.19111 7.71162 3.34581 7.55814C4.32167 6.58725 5.61841 6.05239 6.99696 6.05239C8.37838 6.05239 9.67689 6.58913 10.6534 7.56333C10.8081 7.7177 11.0136 7.80272 11.2323 7.80272C11.4507 7.80272 11.6561 7.71792 11.8104 7.56422C11.9648 7.41041 12.0502 7.2058 12.0503 6.98795C12.0505 6.7701 11.9655 6.5655 11.8111 6.41124Z" fill="white"/>
</g>
<defs>
<clipPath id="clip0_2964_497">
<rect width="14" height="14" fill="white"/>
</clipPath>
</defs>
</svg>
